<?xml version="1.0" encoding="UTF-8" standalone="no"?>
<!DOCTYPE svg PUBLIC "-//W3C//DTD SVG 1.1//EN"
 "http://www.w3.org/Graphics/SVG/1.1/DTD/svg11.dtd">
<!-- Generated by graphviz version 16.1.0 (20260904.0139)
 -->
<!-- Title: forwarded Pages: 1 -->
<svg width="615pt" height="530pt"
 viewBox="0.00 0.00 615.00 530.00" xmlns="http://www.w3.org/2000/svg" xmlns:xlink="http://www.w3.org/1999/xlink">
<g id="graph0" class="graph" transform="scale(1 1) rotate(0) translate(4 526)">
<title>forwarded</title>
<polygon fill="white" stroke="none" points="-4,4 -4,-526 610.88,-526 610.88,4 -4,4"/>
<!-- gh -->
<g id="node1" class="node">
<title>gh</title>
<polygon fill="#eaeef2" stroke="black" points="46.75,-522 0,-522 0,-489.6 46.75,-489.6 46.75,-522"/>
<text xml:space="preserve" text-anchor="middle" x="23.38" y="-501.93" font-family="Helvetica,sans-Serif" font-size="10.00">GitHub</text>
</g>
<!-- cd -->
<g id="node2" class="node">
<title>cd</title>
<polygon fill="#eaeef2" stroke="black" points="149.62,-522 105.12,-522 105.12,-489.6 149.62,-489.6 149.62,-522"/>
<text xml:space="preserve" text-anchor="middle" x="127.38" y="-507.55" font-family="Helvetica,sans-Serif" font-size="10.00">Caddy</text>
<text xml:space="preserve" text-anchor="middle" x="127.38" y="-496.3" font-family="Helvetica,sans-Serif" font-size="10.00">(TLS)</text>
</g>
<!-- gh&#45;&gt;cd -->
<!-- gh1 -->
<!-- gh&#45;&gt;gh1 -->
<g id="edge6" class="edge">
<title>gh&#45;&gt;gh1</title>
<path fill="none" stroke="#8c8c8c" stroke-dasharray="5,2" d="M23.38,-489.28C23.38,-476.51 23.38,-460.05 23.38,-457.07"/>
</g>
<!-- hd -->
<g id="node3" class="node">
<title>hd</title>
<polygon fill="#eaeef2" stroke="black" points="269.75,-522 193,-522 193,-489.6 269.75,-489.6 269.75,-522"/>
<text xml:space="preserve" text-anchor="middle" x="231.38" y="-507.55" font-family="Helvetica,sans-Serif" font-size="10.00">reflector</text>
<text xml:space="preserve" text-anchor="middle" x="231.38" y="-496.3" font-family="Helvetica,sans-Serif" font-size="10.00">HTTP handler</text>
</g>
<!-- cd&#45;&gt;hd -->
<!-- cd1 -->
<!-- cd&#45;&gt;cd1 -->
<g id="edge19" class="edge">
<title>cd&#45;&gt;cd1</title>
<path fill="none" stroke="#8c8c8c" stroke-dasharray="5,2" d="M127.38,-489.28C127.38,-476.51 127.38,-460.05 127.38,-457.07"/>
</g>
<!-- dk -->
<g id="node4" class="node">
<title>dk</title>
<polygon fill="#eaeef2" stroke="black" points="385.5,-522 313.25,-522 313.25,-489.6 385.5,-489.6 385.5,-522"/>
<text xml:space="preserve" text-anchor="middle" x="349.38" y="-507.55" font-family="Helvetica,sans-Serif" font-size="10.00">disk</text>
<text xml:space="preserve" text-anchor="middle" x="349.38" y="-496.3" font-family="Helvetica,sans-Serif" font-size="10.00">logs/ &#160;queue/</text>
</g>
<!-- hd&#45;&gt;dk -->
<!-- hd1 -->
<!-- hd&#45;&gt;hd1 -->
<g id="edge32" class="edge">
<title>hd&#45;&gt;hd1</title>
<path fill="none" stroke="#8c8c8c" stroke-dasharray="5,2" d="M231.38,-489.28C231.38,-476.51 231.38,-460.05 231.38,-457.07"/>
</g>
<!-- wk -->
<g id="node5" class="node">
<title>wk</title>
<polygon fill="#eaeef2" stroke="black" points="503.62,-522 429.12,-522 429.12,-489.6 503.62,-489.6 503.62,-522"/>
<text xml:space="preserve" text-anchor="middle" x="466.38" y="-507.55" font-family="Helvetica,sans-Serif" font-size="10.00">reflector</text>
<text xml:space="preserve" text-anchor="middle" x="466.38" y="-496.3" font-family="Helvetica,sans-Serif" font-size="10.00">queue worker</text>
</g>
<!-- dk&#45;&gt;wk -->
<!-- dk1 -->
<!-- dk&#45;&gt;dk1 -->
<g id="edge45" class="edge">
<title>dk&#45;&gt;dk1</title>
<path fill="none" stroke="#8c8c8c" stroke-dasharray="5,2" d="M349.38,-489.28C349.38,-476.51 349.38,-460.05 349.38,-457.07"/>
</g>
<!-- dc -->
<g id="node6" class="node">
<title>dc</title>
<polygon fill="#eaeef2" stroke="black" points="606.88,-522 551.88,-522 551.88,-489.6 606.88,-489.6 606.88,-522"/>
<text xml:space="preserve" text-anchor="middle" x="579.38" y="-507.55" font-family="Helvetica,sans-Serif" font-size="10.00">Discord</text>
<text xml:space="preserve" text-anchor="middle" x="579.38" y="-496.3" font-family="Helvetica,sans-Serif" font-size="10.00">webhook</text>
</g>
<!-- wk&#45;&gt;dc -->
<!-- wk1 -->
<!-- wk&#45;&gt;wk1 -->
<g id="edge58" class="edge">
<title>wk&#45;&gt;wk1</title>
<path fill="none" stroke="#8c8c8c" stroke-dasharray="5,2" d="M466.38,-489.28C466.38,-476.51 466.38,-460.05 466.38,-457.07"/>
</g>
<!-- dc1 -->
<!-- dc&#45;&gt;dc1 -->
<g id="edge71" class="edge">
<title>dc&#45;&gt;dc1</title>
<path fill="none" stroke="#8c8c8c" stroke-dasharray="5,2" d="M579.38,-489.28C579.38,-476.51 579.38,-460.05 579.38,-457.07"/>
</g>
<!-- hd3 -->
<g id="node7" class="node">
<title>hd3</title>
<polygon fill="#fff8c5" stroke="black" points="284.26,-389.16 178.49,-389.16 178.49,-337.2 284.26,-337.2 284.26,-389.16"/>
<text xml:space="preserve" text-anchor="middle" x="231.38" y="-374.13" font-family="Helvetica,sans-Serif" font-size="9.00">verify HMAC&#45;SHA256</text>
<text xml:space="preserve" text-anchor="middle" x="231.38" y="-364.38" font-family="Helvetica,sans-Serif" font-size="9.00">parse JSON</text>
<text xml:space="preserve" text-anchor="middle" x="231.38" y="-354.63" font-family="Helvetica,sans-Serif" font-size="9.00">apply policy</text>
<text xml:space="preserve" text-anchor="middle" x="231.38" y="-344.88" font-family="Helvetica,sans-Serif" font-size="9.00">render the embed</text>
</g>
<!-- hd4 -->
<!-- hd3&#45;&gt;hd4 -->
<g id="edge35" class="edge">
<title>hd3&#45;&gt;hd4</title>
<path fill="none" stroke="#8c8c8c" stroke-dasharray="5,2" d="M231.38,-336.92C231.38,-322.76 231.38,-307.39 231.38,-304.64"/>
</g>
<!-- gh2 -->
<!-- gh1&#45;&gt;gh2 -->
<g id="edge7" class="edge">
<title>gh1&#45;&gt;gh2</title>
<path fill="none" stroke="#8c8c8c" stroke-dasharray="5,2" d="M23.38,-455.51C23.38,-452.11 23.38,-426.41 23.38,-423.21"/>
</g>
<!-- gh1&#45;&gt;cd1 -->
<g id="edge84" class="edge">
<title>gh1&#45;&gt;cd1</title>
<path fill="none" stroke="black" d="M24.04,-456.24C31.23,-456.24 94.82,-456.24 118.52,-456.24"/>
<polygon fill="black" stroke="black" points="118.26,-458.69 125.26,-456.24 118.26,-453.79 118.26,-458.69"/>
<text xml:space="preserve" text-anchor="middle" x="75.38" y="-470.19" font-family="Helvetica,sans-Serif" font-size="9.00">1 &#160;POST /webhook</text>
<text xml:space="preserve" text-anchor="middle" x="75.38" y="-460.44" font-family="Helvetica,sans-Serif" font-size="9.00">signed, over HTTPS</text>
</g>
<!-- gh3 -->
<!-- gh2&#45;&gt;gh3 -->
<g id="edge8" class="edge">
<title>gh2&#45;&gt;gh3</title>
<path fill="none" stroke="#8c8c8c" stroke-dasharray="5,2" d="M23.38,-421.99C23.38,-418.7 23.38,-367.53 23.38,-364.34"/>
</g>
<!-- gh4 -->
<!-- gh3&#45;&gt;gh4 -->
<g id="edge9" class="edge">
<title>gh3&#45;&gt;gh4</title>
<path fill="none" stroke="#8c8c8c" stroke-dasharray="5,2" d="M23.38,-362.01C23.38,-358.72 23.38,-307.55 23.38,-304.36"/>
</g>
<!-- gh5 -->
<!-- gh4&#45;&gt;gh5 -->
<g id="edge10" class="edge">
<title>gh4&#45;&gt;gh5</title>
<path fill="none" stroke="#8c8c8c" stroke-dasharray="5,2" d="M23.38,-303.11C23.38,-299.71 23.38,-274.01 23.38,-270.81"/>
</g>
<!-- gh6 -->
<!-- gh5&#45;&gt;gh6 -->
<g id="edge11" class="edge">
<title>gh5&#45;&gt;gh6</title>
<path fill="none" stroke="#8c8c8c" stroke-dasharray="5,2" d="M23.38,-269.39C23.38,-265.99 23.38,-240.29 23.38,-237.09"/>
</g>
<!-- gh7 -->
<!-- gh6&#45;&gt;gh7 -->
<g id="edge12" class="edge">
<title>gh6&#45;&gt;gh7</title>
<path fill="none" stroke="#8c8c8c" stroke-dasharray="5,2" d="M23.38,-235.67C23.38,-232.27 23.38,-206.57 23.38,-203.37"/>
</g>
<!-- gh8 -->
<!-- gh7&#45;&gt;gh8 -->
<g id="edge13" class="edge">
<title>gh7&#45;&gt;gh8</title>
<path fill="none" stroke="#8c8c8c" stroke-dasharray="5,2" d="M23.38,-201.95C23.38,-198.55 23.38,-172.85 23.38,-169.65"/>
</g>
<!-- cd7 -->
<!-- gh7&#45;&gt;cd7 -->
<g id="edge90" class="edge">
<title>gh7&#45;&gt;cd7</title>
<path fill="none" stroke="black" d="M32.43,-202.68C56.36,-202.68 119.9,-202.68 126.77,-202.68"/>
<polygon fill="black" stroke="black" points="32.55,-200.23 25.55,-202.68 32.55,-205.13 32.55,-200.23"/>
<text xml:space="preserve" text-anchor="middle" x="75.38" y="-206.88" font-family="Helvetica,sans-Serif" font-size="9.00">6 &#160;200</text>
</g>
<!-- gh9 -->
<!-- gh8&#45;&gt;gh9 -->
<g id="edge14" class="edge">
<title>gh8&#45;&gt;gh9</title>
<path fill="none" stroke="#8c8c8c" stroke-dasharray="5,2" d="M23.38,-168.23C23.38,-164.83 23.38,-139.13 23.38,-135.93"/>
</g>
<!-- gh10 -->
<!-- gh9&#45;&gt;gh10 -->
<g id="edge15" class="edge">
<title>gh9&#45;&gt;gh10</title>
<path fill="none" stroke="#8c8c8c" stroke-dasharray="5,2" d="M23.38,-134.51C23.38,-131.11 23.38,-105.41 23.38,-102.21"/>
</g>
<!-- gh11 -->
<!-- gh10&#45;&gt;gh11 -->
<g id="edge16" class="edge">
<title>gh10&#45;&gt;gh11</title>
<path fill="none" stroke="#8c8c8c" stroke-dasharray="5,2" d="M23.38,-100.79C23.38,-97.39 23.38,-71.69 23.38,-68.49"/>
</g>
<!-- gh12 -->
<!-- gh11&#45;&gt;gh12 -->
<g id="edge17" class="edge">
<title>gh11&#45;&gt;gh12</title>
<path fill="none" stroke="#8c8c8c" stroke-dasharray="5,2" d="M23.38,-67.07C23.38,-63.67 23.38,-37.97 23.38,-34.77"/>
</g>
<!-- gh_end -->
<!-- gh12&#45;&gt;gh_end -->
<g id="edge18" class="edge">
<title>gh12&#45;&gt;gh_end</title>
<path fill="none" stroke="#8c8c8c" stroke-dasharray="5,2" d="M23.38,-33.35C23.38,-29.95 23.38,-4.25 23.38,-1.05"/>
</g>
<!-- cd2 -->
<!-- cd1&#45;&gt;cd2 -->
<g id="edge20" class="edge">
<title>cd1&#45;&gt;cd2</title>
<path fill="none" stroke="#8c8c8c" stroke-dasharray="5,2" d="M127.38,-455.51C127.38,-452.11 127.38,-426.41 127.38,-423.21"/>
</g>
<!-- cd3 -->
<!-- cd2&#45;&gt;cd3 -->
<g id="edge21" class="edge">
<title>cd2&#45;&gt;cd3</title>
<path fill="none" stroke="#8c8c8c" stroke-dasharray="5,2" d="M127.38,-421.99C127.38,-418.7 127.38,-367.53 127.38,-364.34"/>
</g>
<!-- hd2 -->
<!-- cd2&#45;&gt;hd2 -->
<g id="edge85" class="edge">
<title>cd2&#45;&gt;hd2</title>
<path fill="none" stroke="black" d="M128.04,-422.52C135.23,-422.52 198.82,-422.52 222.52,-422.52"/>
<polygon fill="black" stroke="black" points="222.26,-424.97 229.26,-422.52 222.26,-420.07 222.26,-424.97"/>
<text xml:space="preserve" text-anchor="middle" x="179.38" y="-436.47" font-family="Helvetica,sans-Serif" font-size="9.00">2 &#160;POST /webhook</text>
<text xml:space="preserve" text-anchor="middle" x="179.38" y="-426.72" font-family="Helvetica,sans-Serif" font-size="9.00">plain HTTP</text>
</g>
<!-- cd4 -->
<!-- cd3&#45;&gt;cd4 -->
<g id="edge22" class="edge">
<title>cd3&#45;&gt;cd4</title>
<path fill="none" stroke="#8c8c8c" stroke-dasharray="5,2" d="M127.38,-362.01C127.38,-358.72 127.38,-307.55 127.38,-304.36"/>
</g>
<!-- cd5 -->
<!-- cd4&#45;&gt;cd5 -->
<g id="edge23" class="edge">
<title>cd4&#45;&gt;cd5</title>
<path fill="none" stroke="#8c8c8c" stroke-dasharray="5,2" d="M127.38,-303.11C127.38,-299.71 127.38,-274.01 127.38,-270.81"/>
</g>
<!-- cd6 -->
<!-- cd5&#45;&gt;cd6 -->
<g id="edge24" class="edge">
<title>cd5&#45;&gt;cd6</title>
<path fill="none" stroke="#8c8c8c" stroke-dasharray="5,2" d="M127.38,-269.39C127.38,-265.99 127.38,-240.29 127.38,-237.09"/>
</g>
<!-- cd6&#45;&gt;cd7 -->
<g id="edge25" class="edge">
<title>cd6&#45;&gt;cd7</title>
<path fill="none" stroke="#8c8c8c" stroke-dasharray="5,2" d="M127.38,-235.67C127.38,-232.27 127.38,-206.57 127.38,-203.37"/>
</g>
<!-- cd8 -->
<!-- cd7&#45;&gt;cd8 -->
<g id="edge26" class="edge">
<title>cd7&#45;&gt;cd8</title>
<path fill="none" stroke="#8c8c8c" stroke-dasharray="5,2" d="M127.38,-201.95C127.38,-198.55 127.38,-172.85 127.38,-169.65"/>
</g>
<!-- hd7 -->
<!-- cd7&#45;&gt;hd7 -->
<g id="edge91" class="edge">
<title>cd7&#45;&gt;hd7</title>
<path fill="none" stroke="black" d="M136.43,-202.68C160.36,-202.68 223.9,-202.68 230.77,-202.68"/>
<polygon fill="black" stroke="black" points="136.55,-200.23 129.55,-202.68 136.55,-205.13 136.55,-200.23"/>
<text xml:space="preserve" text-anchor="middle" x="179.38" y="-206.88" font-family="Helvetica,sans-Serif" font-size="9.00">6 &#160;200</text>
</g>
<!-- cd9 -->
<!-- cd8&#45;&gt;cd9 -->
<g id="edge27" class="edge">
<title>cd8&#45;&gt;cd9</title>
<path fill="none" stroke="#8c8c8c" stroke-dasharray="5,2" d="M127.38,-168.23C127.38,-164.83 127.38,-139.13 127.38,-135.93"/>
</g>
<!-- cd10 -->
<!-- cd9&#45;&gt;cd10 -->
<g id="edge28" class="edge">
<title>cd9&#45;&gt;cd10</title>
<path fill="none" stroke="#8c8c8c" stroke-dasharray="5,2" d="M127.38,-134.51C127.38,-131.11 127.38,-105.41 127.38,-102.21"/>
</g>
<!-- cd11 -->
<!-- cd10&#45;&gt;cd11 -->
<g id="edge29" class="edge">
<title>cd10&#45;&gt;cd11</title>
<path fill="none" stroke="#8c8c8c" stroke-dasharray="5,2" d="M127.38,-100.79C127.38,-97.39 127.38,-71.69 127.38,-68.49"/>
</g>
<!-- cd12 -->
<!-- cd11&#45;&gt;cd12 -->
<g id="edge30" class="edge">
<title>cd11&#45;&gt;cd12</title>
<path fill="none" stroke="#8c8c8c" stroke-dasharray="5,2" d="M127.38,-67.07C127.38,-63.67 127.38,-37.97 127.38,-34.77"/>
</g>
<!-- cd_end -->
<!-- cd12&#45;&gt;cd_end -->
<g id="edge31" class="edge">
<title>cd12&#45;&gt;cd_end</title>
<path fill="none" stroke="#8c8c8c" stroke-dasharray="5,2" d="M127.38,-33.35C127.38,-29.95 127.38,-4.25 127.38,-1.05"/>
</g>
<!-- hd1&#45;&gt;hd2 -->
<g id="edge33" class="edge">
<title>hd1&#45;&gt;hd2</title>
<path fill="none" stroke="#8c8c8c" stroke-dasharray="5,2" d="M231.38,-455.51C231.38,-452.11 231.38,-426.41 231.38,-423.21"/>
</g>
<!-- hd2&#45;&gt;hd3 -->
<g id="edge34" class="edge">
<title>hd2&#45;&gt;hd3</title>
<path fill="none" stroke="#8c8c8c" stroke-dasharray="5,2" d="M231.38,-421.99C231.38,-420.2 231.38,-404.22 231.38,-389.52"/>
</g>
<!-- hd5 -->
<!-- hd4&#45;&gt;hd5 -->
<g id="edge36" class="edge">
<title>hd4&#45;&gt;hd5</title>
<path fill="none" stroke="#8c8c8c" stroke-dasharray="5,2" d="M231.38,-303.11C231.38,-299.71 231.38,-274.01 231.38,-270.81"/>
</g>
<!-- dk4 -->
<!-- hd4&#45;&gt;dk4 -->
<g id="edge86" class="edge">
<title>hd4&#45;&gt;dk4</title>
<path fill="none" stroke="black" d="M232.13,-303.84C240.4,-303.84 314.44,-303.84 340.42,-303.84"/>
<polygon fill="black" stroke="black" points="340.18,-306.29 347.18,-303.84 340.18,-301.39 340.18,-306.29"/>
<text xml:space="preserve" text-anchor="middle" x="290.38" y="-317.79" font-family="Helvetica,sans-Serif" font-size="9.00">3 &#160;write item to</text>
<text xml:space="preserve" text-anchor="middle" x="290.38" y="-308.04" font-family="Helvetica,sans-Serif" font-size="9.00">queue/waiting</text>
</g>
<!-- hd6 -->
<!-- hd5&#45;&gt;hd6 -->
<g id="edge37" class="edge">
<title>hd5&#45;&gt;hd6</title>
<path fill="none" stroke="#8c8c8c" stroke-dasharray="5,2" d="M231.38,-269.39C231.38,-265.99 231.38,-240.29 231.38,-237.09"/>
</g>
<!-- dk5 -->
<!-- hd5&#45;&gt;dk5 -->
<g id="edge87" class="edge">
<title>hd5&#45;&gt;dk5</title>
<path fill="none" stroke="black" stroke-dasharray="1,5" d="M231.84,-270.12C270.86,-270.12 309.89,-270.12 348.92,-270.12"/>
</g>
<!-- hd6&#45;&gt;hd7 -->
<g id="edge38" class="edge">
<title>hd6&#45;&gt;hd7</title>
<path fill="none" stroke="#8c8c8c" stroke-dasharray="5,2" d="M231.38,-235.67C231.38,-232.27 231.38,-206.57 231.38,-203.37"/>
</g>
<!-- dk6 -->
<!-- hd6&#45;&gt;dk6 -->
<g id="edge89" class="edge">
<title>hd6&#45;&gt;dk6</title>
<path fill="none" stroke="black" d="M232.13,-236.4C240.4,-236.4 314.44,-236.4 340.42,-236.4"/>
<polygon fill="black" stroke="black" points="340.18,-238.85 347.18,-236.4 340.18,-233.95 340.18,-238.85"/>
<text xml:space="preserve" text-anchor="middle" x="290.38" y="-250.35" font-family="Helvetica,sans-Serif" font-size="9.00">5 &#160;log to logs/github</text>
<text xml:space="preserve" text-anchor="middle" x="290.38" y="-240.6" font-family="Helvetica,sans-Serif" font-size="9.00">outcome = queued</text>
</g>
<!-- hd8 -->
<!-- hd7&#45;&gt;hd8 -->
<g id="edge39" class="edge">
<title>hd7&#45;&gt;hd8</title>
<path fill="none" stroke="#8c8c8c" stroke-dasharray="5,2" d="M231.38,-201.95C231.38,-198.55 231.38,-172.85 231.38,-169.65"/>
</g>
<!-- hd9 -->
<!-- hd8&#45;&gt;hd9 -->
<g id="edge40" class="edge">
<title>hd8&#45;&gt;hd9</title>
<path fill="none" stroke="#8c8c8c" stroke-dasharray="5,2" d="M231.38,-168.23C231.38,-164.83 231.38,-139.13 231.38,-135.93"/>
</g>
<!-- hd10 -->
<!-- hd9&#45;&gt;hd10 -->
<g id="edge41" class="edge">
<title>hd9&#45;&gt;hd10</title>
<path fill="none" stroke="#8c8c8c" stroke-dasharray="5,2" d="M231.38,-134.51C231.38,-131.11 231.38,-105.41 231.38,-102.21"/>
</g>
<!-- hd11 -->
<!-- hd10&#45;&gt;hd11 -->
<g id="edge42" class="edge">
<title>hd10&#45;&gt;hd11</title>
<path fill="none" stroke="#8c8c8c" stroke-dasharray="5,2" d="M231.38,-100.79C231.38,-97.39 231.38,-71.69 231.38,-68.49"/>
</g>
<!-- hd12 -->
<!-- hd11&#45;&gt;hd12 -->
<g id="edge43" class="edge">
<title>hd11&#45;&gt;hd12</title>
<path fill="none" stroke="#8c8c8c" stroke-dasharray="5,2" d="M231.38,-67.07C231.38,-63.67 231.38,-37.97 231.38,-34.77"/>
</g>
<!-- hd_end -->
<!-- hd12&#45;&gt;hd_end -->
<g id="edge44" class="edge">
<title>hd12&#45;&gt;hd_end</title>
<path fill="none" stroke="#8c8c8c" stroke-dasharray="5,2" d="M231.38,-33.35C231.38,-29.95 231.38,-4.25 231.38,-1.05"/>
</g>
<!-- dk2 -->
<!-- dk1&#45;&gt;dk2 -->
<g id="edge46" class="edge">
<title>dk1&#45;&gt;dk2</title>
<path fill="none" stroke="#8c8c8c" stroke-dasharray="5,2" d="M349.38,-455.51C349.38,-452.11 349.38,-426.41 349.38,-423.21"/>
</g>
<!-- dk3 -->
<!-- dk2&#45;&gt;dk3 -->
<g id="edge47" class="edge">
<title>dk2&#45;&gt;dk3</title>
<path fill="none" stroke="#8c8c8c" stroke-dasharray="5,2" d="M349.38,-421.99C349.38,-418.7 349.38,-367.53 349.38,-364.34"/>
</g>
<!-- dk3&#45;&gt;dk4 -->
<g id="edge48" class="edge">
<title>dk3&#45;&gt;dk4</title>
<path fill="none" stroke="#8c8c8c" stroke-dasharray="5,2" d="M349.38,-362.01C349.38,-358.72 349.38,-307.55 349.38,-304.36"/>
</g>
<!-- dk4&#45;&gt;dk5 -->
<g id="edge49" class="edge">
<title>dk4&#45;&gt;dk5</title>
<path fill="none" stroke="#8c8c8c" stroke-dasharray="5,2" d="M349.38,-303.11C349.38,-299.71 349.38,-274.01 349.38,-270.81"/>
</g>
<!-- dk5&#45;&gt;dk6 -->
<g id="edge50" class="edge">
<title>dk5&#45;&gt;dk6</title>
<path fill="none" stroke="#8c8c8c" stroke-dasharray="5,2" d="M349.38,-269.39C349.38,-265.99 349.38,-240.29 349.38,-237.09"/>
</g>
<!-- wk5 -->
<!-- dk5&#45;&gt;wk5 -->
<g id="edge88" class="edge">
<title>dk5&#45;&gt;wk5</title>
<path fill="none" stroke="black" stroke-dasharray="1,5" d="M350.12,-270.12C358.32,-270.12 431.73,-270.12 457.49,-270.12"/>
<polygon fill="black" stroke="black" points="457.18,-272.57 464.18,-270.12 457.18,-267.67 457.18,-272.57"/>
<text xml:space="preserve" text-anchor="middle" x="407.88" y="-274.32" font-family="Helvetica,sans-Serif" font-size="9.00">4 &#160;wake</text>
</g>
<!-- dk7 -->
<!-- dk6&#45;&gt;dk7 -->
<g id="edge51" class="edge">
<title>dk6&#45;&gt;dk7</title>
<path fill="none" stroke="#8c8c8c" stroke-dasharray="5,2" d="M349.38,-235.67C349.38,-232.27 349.38,-206.57 349.38,-203.37"/>
</g>
<!-- dk8 -->
<!-- dk7&#45;&gt;dk8 -->
<g id="edge52" class="edge">
<title>dk7&#45;&gt;dk8</title>
<path fill="none" stroke="#8c8c8c" stroke-dasharray="5,2" d="M349.38,-201.95C349.38,-198.55 349.38,-172.85 349.38,-169.65"/>
</g>
<!-- dk9 -->
<!-- dk8&#45;&gt;dk9 -->
<g id="edge53" class="edge">
<title>dk8&#45;&gt;dk9</title>
<path fill="none" stroke="#8c8c8c" stroke-dasharray="5,2" d="M349.38,-168.23C349.38,-164.83 349.38,-139.13 349.38,-135.93"/>
</g>
<!-- wk8 -->
<!-- dk8&#45;&gt;wk8 -->
<g id="edge92" class="edge">
<title>dk8&#45;&gt;wk8</title>
<path fill="none" stroke="black" d="M358.48,-168.96C384.5,-168.96 457.86,-168.96 465.7,-168.96"/>
<polygon fill="black" stroke="black" points="358.64,-166.51 351.64,-168.96 358.64,-171.41 358.64,-166.51"/>
<text xml:space="preserve" text-anchor="middle" x="407.88" y="-173.16" font-family="Helvetica,sans-Serif" font-size="9.00">7 &#160;read due items</text>
</g>
<!-- dk10 -->
<!-- dk9&#45;&gt;dk10 -->
<g id="edge54" class="edge">
<title>dk9&#45;&gt;dk10</title>
<path fill="none" stroke="#8c8c8c" stroke-dasharray="5,2" d="M349.38,-134.51C349.38,-131.11 349.38,-105.41 349.38,-102.21"/>
</g>
<!-- dk11 -->
<!-- dk10&#45;&gt;dk11 -->
<g id="edge55" class="edge">
<title>dk10&#45;&gt;dk11</title>
<path fill="none" stroke="#8c8c8c" stroke-dasharray="5,2" d="M349.38,-100.79C349.38,-97.39 349.38,-71.69 349.38,-68.49"/>
</g>
<!-- dk12 -->
<!-- dk11&#45;&gt;dk12 -->
<g id="edge56" class="edge">
<title>dk11&#45;&gt;dk12</title>
<path fill="none" stroke="#8c8c8c" stroke-dasharray="5,2" d="M349.38,-67.07C349.38,-63.67 349.38,-37.97 349.38,-34.77"/>
</g>
<!-- wk11 -->
<!-- dk11&#45;&gt;wk11 -->
<g id="edge95" class="edge">
<title>dk11&#45;&gt;wk11</title>
<path fill="none" stroke="black" d="M358.48,-67.8C384.5,-67.8 457.86,-67.8 465.7,-67.8"/>
<polygon fill="black" stroke="black" points="358.64,-65.35 351.64,-67.8 358.64,-70.25 358.64,-65.35"/>
<text xml:space="preserve" text-anchor="middle" x="407.88" y="-81.75" font-family="Helvetica,sans-Serif" font-size="9.00">10 &#160;log to logs/discord</text>
<text xml:space="preserve" text-anchor="middle" x="407.88" y="-72" font-family="Helvetica,sans-Serif" font-size="9.00">attempt 1, status 204</text>
</g>
<!-- dk_end -->
<!-- dk12&#45;&gt;dk_end -->
<g id="edge57" class="edge">
<title>dk12&#45;&gt;dk_end</title>
<path fill="none" stroke="#8c8c8c" stroke-dasharray="5,2" d="M349.38,-33.35C349.38,-29.95 349.38,-4.25 349.38,-1.05"/>
</g>
<!-- wk12 -->
<!-- dk12&#45;&gt;wk12 -->
<g id="edge96" class="edge">
<title>dk12&#45;&gt;wk12</title>
<path fill="none" stroke="black" d="M358.48,-34.08C384.5,-34.08 457.86,-34.08 465.7,-34.08"/>
<polygon fill="black" stroke="black" points="358.64,-31.63 351.64,-34.08 358.64,-36.53 358.64,-31.63"/>
<text xml:space="preserve" text-anchor="middle" x="407.88" y="-48.03" font-family="Helvetica,sans-Serif" font-size="9.00">11 &#160;rename item to</text>
<text xml:space="preserve" text-anchor="middle" x="407.88" y="-38.28" font-family="Helvetica,sans-Serif" font-size="9.00">queue/delivered</text>
</g>
<!-- wk2 -->
<!-- wk1&#45;&gt;wk2 -->
<g id="edge59" class="edge">
<title>wk1&#45;&gt;wk2</title>
<path fill="none" stroke="#8c8c8c" stroke-dasharray="5,2" d="M466.38,-455.51C466.38,-452.11 466.38,-426.41 466.38,-423.21"/>
</g>
<!-- wk3 -->
<!-- wk2&#45;&gt;wk3 -->
<g id="edge60" class="edge">
<title>wk2&#45;&gt;wk3</title>
<path fill="none" stroke="#8c8c8c" stroke-dasharray="5,2" d="M466.38,-421.99C466.38,-418.7 466.38,-367.53 466.38,-364.34"/>
</g>
<!-- wk4 -->
<!-- wk3&#45;&gt;wk4 -->
<g id="edge61" class="edge">
<title>wk3&#45;&gt;wk4</title>
<path fill="none" stroke="#8c8c8c" stroke-dasharray="5,2" d="M466.38,-362.01C466.38,-358.72 466.38,-307.55 466.38,-304.36"/>
</g>
<!-- wk4&#45;&gt;wk5 -->
<g id="edge62" class="edge">
<title>wk4&#45;&gt;wk5</title>
<path fill="none" stroke="#8c8c8c" stroke-dasharray="5,2" d="M466.38,-303.11C466.38,-299.71 466.38,-274.01 466.38,-270.81"/>
</g>
<!-- wk6 -->
<!-- wk5&#45;&gt;wk6 -->
<g id="edge63" class="edge">
<title>wk5&#45;&gt;wk6</title>
<path fill="none" stroke="#8c8c8c" stroke-dasharray="5,2" d="M466.38,-269.39C466.38,-265.99 466.38,-240.29 466.38,-237.09"/>
</g>
<!-- wk7 -->
<!-- wk6&#45;&gt;wk7 -->
<g id="edge64" class="edge">
<title>wk6&#45;&gt;wk7</title>
<path fill="none" stroke="#8c8c8c" stroke-dasharray="5,2" d="M466.38,-235.67C466.38,-232.27 466.38,-206.57 466.38,-203.37"/>
</g>
<!-- wk7&#45;&gt;wk8 -->
<g id="edge65" class="edge">
<title>wk7&#45;&gt;wk8</title>
<path fill="none" stroke="#8c8c8c" stroke-dasharray="5,2" d="M466.38,-201.95C466.38,-198.55 466.38,-172.85 466.38,-169.65"/>
</g>
<!-- wk9 -->
<!-- wk8&#45;&gt;wk9 -->
<g id="edge66" class="edge">
<title>wk8&#45;&gt;wk9</title>
<path fill="none" stroke="#8c8c8c" stroke-dasharray="5,2" d="M466.38,-168.23C466.38,-164.83 466.38,-139.13 466.38,-135.93"/>
</g>
<!-- wk10 -->
<!-- wk9&#45;&gt;wk10 -->
<g id="edge67" class="edge">
<title>wk9&#45;&gt;wk10</title>
<path fill="none" stroke="#8c8c8c" stroke-dasharray="5,2" d="M466.38,-134.51C466.38,-131.11 466.38,-105.41 466.38,-102.21"/>
</g>
<!-- dc9 -->
<!-- wk9&#45;&gt;dc9 -->
<g id="edge93" class="edge">
<title>wk9&#45;&gt;dc9</title>
<path fill="none" stroke="black" d="M467.1,-135.24C474.98,-135.24 545.28,-135.24 570.45,-135.24"/>
<polygon fill="black" stroke="black" points="570.2,-137.69 577.2,-135.24 570.2,-132.79 570.2,-137.69"/>
<text xml:space="preserve" text-anchor="middle" x="522.88" y="-139.44" font-family="Helvetica,sans-Serif" font-size="9.00">8 &#160;POST embed JSON</text>
</g>
<!-- wk10&#45;&gt;wk11 -->
<g id="edge68" class="edge">
<title>wk10&#45;&gt;wk11</title>
<path fill="none" stroke="#8c8c8c" stroke-dasharray="5,2" d="M466.38,-100.79C466.38,-97.39 466.38,-71.69 466.38,-68.49"/>
</g>
<!-- dc10 -->
<!-- wk10&#45;&gt;dc10 -->
<g id="edge94" class="edge">
<title>wk10&#45;&gt;dc10</title>
<path fill="none" stroke="black" d="M475.51,-101.52C500.94,-101.52 571.19,-101.52 578.72,-101.52"/>
<polygon fill="black" stroke="black" points="475.61,-99.07 468.61,-101.52 475.61,-103.97 475.61,-99.07"/>
<text xml:space="preserve" text-anchor="middle" x="522.88" y="-105.72" font-family="Helvetica,sans-Serif" font-size="9.00">9 &#160;204</text>
</g>
<!-- wk11&#45;&gt;wk12 -->
<g id="edge69" class="edge">
<title>wk11&#45;&gt;wk12</title>
<path fill="none" stroke="#8c8c8c" stroke-dasharray="5,2" d="M466.38,-67.07C466.38,-63.67 466.38,-37.97 466.38,-34.77"/>
</g>
<!-- wk_end -->
<!-- wk12&#45;&gt;wk_end -->
<g id="edge70" class="edge">
<title>wk12&#45;&gt;wk_end</title>
<path fill="none" stroke="#8c8c8c" stroke-dasharray="5,2" d="M466.38,-33.35C466.38,-29.95 466.38,-4.25 466.38,-1.05"/>
</g>
<!-- dc2 -->
<!-- dc1&#45;&gt;dc2 -->
<g id="edge72" class="edge">
<title>dc1&#45;&gt;dc2</title>
<path fill="none" stroke="#8c8c8c" stroke-dasharray="5,2" d="M579.38,-455.51C579.38,-452.11 579.38,-426.41 579.38,-423.21"/>
</g>
<!-- dc3 -->
<!-- dc2&#45;&gt;dc3 -->
<g id="edge73" class="edge">
<title>dc2&#45;&gt;dc3</title>
<path fill="none" stroke="#8c8c8c" stroke-dasharray="5,2" d="M579.38,-421.99C579.38,-418.7 579.38,-367.53 579.38,-364.34"/>
</g>
<!-- dc4 -->
<!-- dc3&#45;&gt;dc4 -->
<g id="edge74" class="edge">
<title>dc3&#45;&gt;dc4</title>
<path fill="none" stroke="#8c8c8c" stroke-dasharray="5,2" d="M579.38,-362.01C579.38,-358.72 579.38,-307.55 579.38,-304.36"/>
</g>
<!-- dc5 -->
<!-- dc4&#45;&gt;dc5 -->
<g id="edge75" class="edge">
<title>dc4&#45;&gt;dc5</title>
<path fill="none" stroke="#8c8c8c" stroke-dasharray="5,2" d="M579.38,-303.11C579.38,-299.71 579.38,-274.01 579.38,-270.81"/>
</g>
<!-- dc6 -->
<!-- dc5&#45;&gt;dc6 -->
<g id="edge76" class="edge">
<title>dc5&#45;&gt;dc6</title>
<path fill="none" stroke="#8c8c8c" stroke-dasharray="5,2" d="M579.38,-269.39C579.38,-265.99 579.38,-240.29 579.38,-237.09"/>
</g>
<!-- dc7 -->
<!-- dc6&#45;&gt;dc7 -->
<g id="edge77" class="edge">
<title>dc6&#45;&gt;dc7</title>
<path fill="none" stroke="#8c8c8c" stroke-dasharray="5,2" d="M579.38,-235.67C579.38,-232.27 579.38,-206.57 579.38,-203.37"/>
</g>
<!-- dc8 -->
<!-- dc7&#45;&gt;dc8 -->
<g id="edge78" class="edge">
<title>dc7&#45;&gt;dc8</title>
<path fill="none" stroke="#8c8c8c" stroke-dasharray="5,2" d="M579.38,-201.95C579.38,-198.55 579.38,-172.85 579.38,-169.65"/>
</g>
<!-- dc8&#45;&gt;dc9 -->
<g id="edge79" class="edge">
<title>dc8&#45;&gt;dc9</title>
<path fill="none" stroke="#8c8c8c" stroke-dasharray="5,2" d="M579.38,-168.23C579.38,-164.83 579.38,-139.13 579.38,-135.93"/>
</g>
<!-- dc9&#45;&gt;dc10 -->
<g id="edge80" class="edge">
<title>dc9&#45;&gt;dc10</title>
<path fill="none" stroke="#8c8c8c" stroke-dasharray="5,2" d="M579.38,-134.51C579.38,-131.11 579.38,-105.41 579.38,-102.21"/>
</g>
<!-- dc11 -->
<!-- dc10&#45;&gt;dc11 -->
<g id="edge81" class="edge">
<title>dc10&#45;&gt;dc11</title>
<path fill="none" stroke="#8c8c8c" stroke-dasharray="5,2" d="M579.38,-100.79C579.38,-97.39 579.38,-71.69 579.38,-68.49"/>
</g>
<!-- dc12 -->
<!-- dc11&#45;&gt;dc12 -->
<g id="edge82" class="edge">
<title>dc11&#45;&gt;dc12</title>
<path fill="none" stroke="#8c8c8c" stroke-dasharray="5,2" d="M579.38,-67.07C579.38,-63.67 579.38,-37.97 579.38,-34.77"/>
</g>
<!-- dc_end -->
<!-- dc12&#45;&gt;dc_end -->
<g id="edge83" class="edge">
<title>dc12&#45;&gt;dc_end</title>
<path fill="none" stroke="#8c8c8c" stroke-dasharray="5,2" d="M579.38,-33.35C579.38,-29.95 579.38,-4.25 579.38,-1.05"/>
</g>
</g>
</svg>
