<?xml version="1.0" encoding="UTF-8" standalone="no"?>
<!DOCTYPE svg PUBLIC "-//W3C//DTD SVG 1.1//EN"
 "http://www.w3.org/Graphics/SVG/1.1/DTD/svg11.dtd">
<!-- Generated by graphviz version 16.1.0 (20260904.0139)
 -->
<!-- Title: lifecycle Pages: 1 -->
<svg width="409pt" height="328pt"
 viewBox="0.00 0.00 409.00 328.00" xmlns="http://www.w3.org/2000/svg" xmlns:xlink="http://www.w3.org/1999/xlink">
<g id="graph0" class="graph" transform="scale(1 1) rotate(0) translate(4 323.5)">
<title>lifecycle</title>
<polygon fill="white" stroke="none" points="-4,4 -4,-323.5 404.78,-323.5 404.78,4 -4,4"/>
<!-- arrive -->
<g id="node1" class="node">
<title>arrive</title>
<text xml:space="preserve" text-anchor="middle" x="243.2" y="-297.62" font-family="Helvetica,sans-Serif" font-size="10.00">signed delivery</text>
</g>
<!-- waiting -->
<g id="node2" class="node">
<title>waiting</title>
<path fill="#fff8c5" stroke="black" d="M155.28,-233.75C155.28,-233.75 99.12,-233.75 99.12,-233.75 93.12,-233.75 87.12,-227.75 87.12,-221.75 87.12,-221.75 87.12,-209.75 87.12,-209.75 87.12,-203.75 93.12,-197.75 99.12,-197.75 99.12,-197.75 155.28,-197.75 155.28,-197.75 161.28,-197.75 167.28,-203.75 167.28,-209.75 167.28,-209.75 167.28,-221.75 167.28,-221.75 167.28,-227.75 161.28,-233.75 155.28,-233.75"/>
<text xml:space="preserve" text-anchor="middle" x="127.2" y="-211.88" font-family="Helvetica,sans-Serif" font-size="10.00">queue/waiting</text>
</g>
<!-- arrive&#45;&gt;waiting -->
<g id="edge1" class="edge">
<title>arrive&#45;&gt;waiting</title>
<path fill="none" stroke="black" d="M219.73,-283.55C202.04,-270.78 177.62,-253.15 158.31,-239.2"/>
<polygon fill="black" stroke="black" points="159.78,-237.25 152.67,-235.14 156.91,-241.22 159.78,-237.25"/>
<text xml:space="preserve" text-anchor="middle" x="225.06" y="-254.95" font-family="Helvetica,sans-Serif" font-size="9.00"> &#160;policy forwards it</text>
</g>
<!-- skipped -->
<g id="node5" class="node">
<title>skipped</title>
<path fill="#eaeef2" stroke="black" d="M388.78,-177.75C388.78,-177.75 329.62,-177.75 329.62,-177.75 323.62,-177.75 317.62,-171.75 317.62,-165.75 317.62,-165.75 317.62,-153.75 317.62,-153.75 317.62,-147.75 323.62,-141.75 329.62,-141.75 329.62,-141.75 388.78,-141.75 388.78,-141.75 394.78,-141.75 400.78,-147.75 400.78,-153.75 400.78,-153.75 400.78,-165.75 400.78,-165.75 400.78,-171.75 394.78,-177.75 388.78,-177.75"/>
<text xml:space="preserve" text-anchor="middle" x="359.2" y="-155.88" font-family="Helvetica,sans-Serif" font-size="10.00">queue/skipped</text>
</g>
<!-- arrive&#45;&gt;skipped -->
<g id="edge2" class="edge">
<title>arrive&#45;&gt;skipped</title>
<path fill="none" stroke="black" d="M259.03,-283.78C264.84,-277.5 271.42,-270.26 277.2,-263.5 299.75,-237.18 324.4,-205.94 340.72,-184.87"/>
<polygon fill="black" stroke="black" points="342.66,-186.37 345,-179.33 338.78,-183.38 342.66,-186.37"/>
<text xml:space="preserve" text-anchor="middle" x="321.42" y="-254.95" font-family="Helvetica,sans-Serif" font-size="9.00"> &#160;policy declines it</text>
</g>
<!-- waiting&#45;&gt;waiting -->
<g id="edge3" class="edge">
<title>waiting&#45;&gt;waiting</title>
<path fill="none" stroke="black" d="M167.64,-222.71C199.55,-225.4 232.28,-223.08 232.28,-215.75 232.28,-209.05 204.93,-206.54 175.87,-208.21"/>
<polygon fill="black" stroke="black" points="175.96,-205.75 169.15,-208.69 176.31,-210.64 175.96,-205.75"/>
<text xml:space="preserve" text-anchor="middle" x="270.16" y="-216.95" font-family="Helvetica,sans-Serif" font-size="9.00"> &#160;post fails:</text>
<text xml:space="preserve" text-anchor="middle" x="270.16" y="-207.2" font-family="Helvetica,sans-Serif" font-size="9.00"> &#160;back off, try again</text>
</g>
<!-- delivered -->
<g id="node3" class="node">
<title>delivered</title>
<path fill="#dafbe1" stroke="black" d="M76.41,-121.75C76.41,-121.75 12,-121.75 12,-121.75 6,-121.75 0,-115.75 0,-109.75 0,-109.75 0,-97.75 0,-97.75 0,-91.75 6,-85.75 12,-85.75 12,-85.75 76.41,-85.75 76.41,-85.75 82.41,-85.75 88.41,-91.75 88.41,-97.75 88.41,-97.75 88.41,-109.75 88.41,-109.75 88.41,-115.75 82.41,-121.75 76.41,-121.75"/>
<text xml:space="preserve" text-anchor="middle" x="44.2" y="-99.88" font-family="Helvetica,sans-Serif" font-size="10.00">queue/delivered</text>
</g>
<!-- waiting&#45;&gt;delivered -->
<g id="edge4" class="edge">
<title>waiting&#45;&gt;delivered</title>
<path fill="none" stroke="black" d="M86.66,-206.44C70.89,-201.02 54.38,-192.16 44.95,-177.75 35.97,-164.01 35.88,-145.47 38,-130.52"/>
<polygon fill="black" stroke="black" points="40.4,-131 39.18,-123.69 35.57,-130.16 40.4,-131"/>
<text xml:space="preserve" text-anchor="middle" x="89.58" y="-156.07" font-family="Helvetica,sans-Serif" font-size="9.00"> &#160;Discord answers 2xx</text>
</g>
<!-- failed -->
<g id="node4" class="node">
<title>failed</title>
<path fill="#ffebe9" stroke="black" d="M217.53,-121.75C217.53,-121.75 168.88,-121.75 168.88,-121.75 162.88,-121.75 156.88,-115.75 156.88,-109.75 156.88,-109.75 156.88,-97.75 156.88,-97.75 156.88,-91.75 162.88,-85.75 168.88,-85.75 168.88,-85.75 217.53,-85.75 217.53,-85.75 223.53,-85.75 229.53,-91.75 229.53,-97.75 229.53,-97.75 229.53,-109.75 229.53,-109.75 229.53,-115.75 223.53,-121.75 217.53,-121.75"/>
<text xml:space="preserve" text-anchor="middle" x="193.2" y="-99.88" font-family="Helvetica,sans-Serif" font-size="10.00">queue/failed</text>
</g>
<!-- waiting&#45;&gt;failed -->
<g id="edge5" class="edge">
<title>waiting&#45;&gt;failed</title>
<path fill="none" stroke="black" d="M137.52,-197.56C148.5,-179.27 165.97,-150.15 178.41,-129.41"/>
<polygon fill="black" stroke="black" points="180.47,-130.74 181.97,-123.48 176.27,-128.22 180.47,-130.74"/>
<text xml:space="preserve" text-anchor="middle" x="216.47" y="-160.95" font-family="Helvetica,sans-Serif" font-size="9.00"> &#160;post fails and the item</text>
<text xml:space="preserve" text-anchor="middle" x="216.47" y="-151.2" font-family="Helvetica,sans-Serif" font-size="9.00"> &#160;is older than 24 hours</text>
</g>
<!-- gone -->
<g id="node6" class="node">
<title>gone</title>
<text xml:space="preserve" text-anchor="middle" x="193.2" y="-14.12" font-family="Helvetica,sans-Serif" font-size="10.00">deleted</text>
</g>
<!-- delivered&#45;&gt;gone -->
<g id="edge6" class="edge">
<title>delivered&#45;&gt;gone</title>
<path fill="none" stroke="#666666" stroke-dasharray="5,2" d="M71.93,-85.43C86.59,-76.42 104.98,-65.36 121.7,-56 133.71,-49.28 147.06,-42.26 158.93,-36.16"/>
<polygon fill="#666666" stroke="#666666" points="160.03,-38.35 165.15,-32.99 157.8,-33.99 160.03,-38.35"/>
<text xml:space="preserve" text-anchor="middle" x="149.45" y="-57.2" font-family="Helvetica,sans-Serif" font-size="9.00" fill="#4d4d4d"> &#160;after 6 hours</text>
</g>
<!-- failed&#45;&gt;gone -->
<g id="edge7" class="edge">
<title>failed&#45;&gt;gone</title>
<path fill="none" stroke="#666666" stroke-dasharray="5,2" d="M193.2,-85.4C193.2,-73.45 193.2,-57.39 193.2,-44.06"/>
<polygon fill="#666666" stroke="#666666" points="195.66,-44.27 193.21,-37.27 190.76,-44.27 195.66,-44.27"/>
<text xml:space="preserve" text-anchor="middle" x="219.08" y="-57.2" font-family="Helvetica,sans-Serif" font-size="9.00" fill="#4d4d4d"> &#160;after 7 days</text>
</g>
<!-- skipped&#45;&gt;gone -->
<g id="edge8" class="edge">
<title>skipped&#45;&gt;gone</title>
<path fill="none" stroke="#666666" stroke-dasharray="5,2" d="M345.66,-141.53C327.91,-119.74 295.06,-81.93 261.2,-56 250.89,-48.1 238.67,-40.89 227.45,-34.97"/>
<polygon fill="#666666" stroke="#666666" points="228.57,-32.79 221.22,-31.78 226.34,-37.16 228.57,-32.79"/>
<text xml:space="preserve" text-anchor="middle" x="362.29" y="-100.08" font-family="Helvetica,sans-Serif" font-size="9.00" fill="#4d4d4d"> &#160;after 60 minutes</text>
</g>
</g>
</svg>
